alexis texas portable

41 ' 16 ''

395 mb

720 * 576

avi
 
http://bayimg.com/haNJnAadJ

                                  info
General
Complete name                    : C:Downloads 2alexis texas portablealexis texas portable.avi
Format                           : AVI
Format/Info                      : Audio Video Interleave
File size                        : 395 MiB
Duration                         : 41mn 16s
Overall bit rate                 : 1 339 Kbps
Writing application              : MEncoder SVN-r30881(20100311-gcc4.3.3)
Writing library                  : MPlayer

Video
ID                               : 0
Format                           : MPEG-4 Visual
Format profile                   : Advanced Simple@L5
Format settings, BVOP            : 2
Format settings, QPel            : No
Format settings, GMC             : No warppoints
Format settings, Matrix          : Default (H.263)
Codec ID                         : XVID
Codec ID/Hint                    : XviD
Duration                         : 41mn 16s
Bit rate                         : 1 199 Kbps
Width                            : 720 pixels
Height                           : 576 pixels
Display aspect ratio             : 5:4
Frame rate                       : 25.000 fps
Standard                         : PAL
Color space                      : YUV
Chroma subsampling               : 4:2:0
Bit depth                        : 8 bits
Scan type                        : Progressive
Compression mode                 : Lossy
Bits/(Pixel*Frame)               : 0.116
Stream size                      : 354 MiB (90%)
Writing library                  : XviD 1.2.1 (UTC 2008-12-04)

Audio
ID                               : 1
Format                           : MPEG Audio
Format version                   : Version 1
Format profile                   : Layer 3
Mode                             : Joint stereo
Mode extension                   : MS Stereo
Codec ID                         : 55
Codec ID/Hint                    : MP3
Duration                         : 41mn 16s
Bit rate mode                    : Constant
Bit rate                         : 128 Kbps
Channel(s)                       : 2 channels
Sampling rate                    : 44.1 KHz
Compression mode                 : Lossy
Delay relative to video          : 40ms
Stream size                      : 37.8 MiB (10%)
Alignment                        : Aligned on interleaves
Interleave, duration             : 26 ms (0.65 video frame)
Interleave, preload duration     : 522 ms

fab